<?xml version="1.0" encoding="UTF-8"?>
<svg id="Layer_1" data-name="Layer 1" xmlns="http://www.w3.org/2000/svg" xmlns:xlink="http://www.w3.org/1999/xlink" viewBox="0 0 435.33 106.46">
  <defs>
    <style>
      .cls-1 {
        fill: url(#linear-gradient-2);
      }

      .cls-2 {
        fill: url(#linear-gradient-6);
      }

      .cls-3 {
        fill: #a33eb5;
      }

      .cls-4 {
        fill: url(#linear-gradient-5);
      }

      .cls-5 {
        fill: url(#linear-gradient-3);
      }

      .cls-6 {
        fill: url(#linear-gradient);
      }

      .cls-7 {
        fill: url(#linear-gradient-4);
      }
    </style>
    <linearGradient id="linear-gradient" x1="121.33" y1="28.45" x2="141.28" y2="28.45" gradientUnits="userSpaceOnUse">
      <stop offset="0" stop-color="#a33eb5"/>
      <stop offset="1" stop-color="#c275d0"/>
    </linearGradient>
    <linearGradient id="linear-gradient-2" x1="137.84" y1="42.07" x2="151.06" y2="42.07" gradientUnits="userSpaceOnUse">
      <stop offset="0" stop-color="#d3ff19"/>
      <stop offset="1" stop-color="#e3ff6b"/>
    </linearGradient>
    <linearGradient id="linear-gradient-3" x1="126.95" y1="79.1" x2="135.67" y2="79.1" gradientUnits="userSpaceOnUse">
      <stop offset="0" stop-color="#12848c"/>
      <stop offset="1" stop-color="#17a6b0"/>
    </linearGradient>
    <linearGradient id="linear-gradient-4" x1="28.15" y1="52.64" x2="113.29" y2="52.64" gradientUnits="userSpaceOnUse">
      <stop offset="0" stop-color="#00dde7"/>
      <stop offset="1" stop-color="#8bfaff"/>
    </linearGradient>
    <linearGradient id="linear-gradient-5" x1="48.78" y1="66.01" x2="127.06" y2="66.01" gradientUnits="userSpaceOnUse">
      <stop offset=".45" stop-color="#d3ff19"/>
      <stop offset="1" stop-color="#e3ff6b"/>
    </linearGradient>
    <linearGradient id="linear-gradient-6" x1="59.7" y1="81.31" x2="121.18" y2="81.31" gradientUnits="userSpaceOnUse">
      <stop offset="0" stop-color="#235761"/>
      <stop offset="1" stop-color="#2e727f"/>
    </linearGradient>
  </defs>
  <g>
    <path class="cls-6" d="m131.32,38.43c-3.12,0-6.2-1.46-8.15-4.19-1.54-2.17-2.15-4.82-1.7-7.44.44-2.63,1.89-4.92,4.06-6.47s4.82-2.15,7.44-1.7c2.63.44,4.92,1.89,6.47,4.06h0c3.19,4.48,2.13,10.72-2.36,13.91-1.75,1.24-3.77,1.84-5.76,1.84Zm-.02-15.13c-1.06,0-2.09.33-2.98.95-1.12.8-1.87,1.98-2.1,3.34-.23,1.36.08,2.72.88,3.85,1.65,2.32,4.87,2.86,7.19,1.22,2.32-1.65,2.86-4.87,1.22-7.19h0c-.8-1.12-1.98-1.87-3.34-2.1-.29-.05-.58-.07-.87-.07Z"/>
    <path class="cls-1" d="m144.46,48.68c-2.07,0-4.11-.97-5.4-2.78-2.11-2.97-1.41-7.11,1.56-9.22,1.44-1.02,3.19-1.42,4.93-1.13,1.74.29,3.26,1.25,4.29,2.69,1.02,1.44,1.42,3.19,1.13,4.93-.29,1.74-1.25,3.26-2.69,4.29-1.16.82-2.5,1.22-3.82,1.22Zm-.01-8.4c-.37,0-.73.11-1.03.33-.81.57-1,1.69-.42,2.5.57.81,1.69.99,2.5.42.39-.28.65-.69.73-1.16s-.03-.95-.31-1.34h0c-.28-.39-.69-.65-1.16-.73-.1-.02-.2-.03-.3-.03Z"/>
    <circle class="cls-5" cx="131.31" cy="79.1" r="4.36"/>
    <path class="cls-7" d="m60.88,102.05l-7.04-4.23c-6.02-3.62-11.51-8.77-15.87-14.9-7.48-10.53-10.95-22.89-9.51-33.91.02-.15.04-.28.05-.39,1.48-12.7,9.89-25.64,22.52-34.61,9.8-6.96,21-10.78,31.57-10.78.14,0,.28,0,.41,0,5.29.05,10.15,1.06,14.44,3,4.51,2.04,8.19,5.02,10.91,8.86,2.37,3.34,3.9,7.15,4.55,11.35.62,4,.42,8.24-.59,12.6-1.99,8.59-7.09,17.22-14.37,24.32-2.25,2.23-4.76,4.32-7.44,6.23-6.21,4.41-13.16,7.64-20.09,9.34-1.59.39-3.18.6-4.71.81l-.57.08c-.42.06-.84.14-1.23.25h-.02c-1.19.32-2.31.84-3.34,1.57-4.19,2.98-5.58,8.47-3.31,13.06l3.64,7.36ZM82.62,8.05c-9.59,0-19.79,3.5-28.78,9.89-11.56,8.21-19.23,19.91-20.53,31.29l-.02.13c0,.05-.02.12-.02.14v.09c-1.31,9.84,1.85,20.96,8.64,30.53,2.73,3.85,5.94,7.26,9.46,10.09,0-1.26.14-2.53.45-3.78.87-3.53,2.99-6.63,5.96-8.74,1.49-1.06,3.14-1.83,4.89-2.29.6-.16,1.22-.29,1.85-.37.19-.03.39-.05.58-.08,1.47-.2,2.86-.38,4.2-.71,6.35-1.56,12.73-4.53,18.45-8.59,2.47-1.76,4.78-3.69,6.85-5.73h.01c6.63-6.47,11.27-14.27,13.05-21.97,1.78-7.69.67-14.63-3.19-20.07-4.44-6.25-12.07-9.74-21.47-9.83-.12,0-.25,0-.37,0Z"/>
    <path class="cls-4" d="m60.85,101.98l-4.58-6.81c-3.27-4.86-5.59-10.68-6.71-16.85-1.93-10.59-.18-21.15,4.8-28.97.07-.11.13-.21.18-.28,5.61-9.07,16.52-15.87,29.21-18.18,9.97-1.82,19.89-.7,27.93,3.16,3.99,1.91,7.32,4.4,9.88,7.39,2.71,3.16,4.44,6.74,5.15,10.64h0c.62,3.39.42,6.84-.58,10.27-.95,3.26-2.61,6.4-4.92,9.35-4.54,5.79-11.44,10.51-19.44,13.29-2.48.88-5.11,1.58-7.8,2.07-6.23,1.14-12.61,1.12-18.44-.04-1.35-.27-2.62-.67-3.85-1.06l-.45-.14c-.32-.1-.64-.18-.96-.23h-.02c-.95-.18-1.92-.18-2.89,0-3.97.72-6.78,4.16-6.7,8.18l.18,8.21Zm32.19-67.11c-2.77,0-5.59.26-8.43.77-11.39,2.08-21.11,8.06-26,16.02l-.07.11s-.03.05-.05.07l-.05.08c-4.35,6.81-5.86,16.12-4.14,25.54.64,3.5,1.7,6.87,3.14,9.96.38-.69.82-1.35,1.32-1.97,1.95-2.41,4.71-4.04,7.76-4.6,1.54-.28,3.09-.28,4.61,0,.52.09,1.04.22,1.56.38l.46.14c1.16.36,2.25.71,3.34.93,5.24,1.05,10.99,1.06,16.63.03,2.44-.44,4.82-1.07,7.06-1.87h.02c7.14-2.49,13.26-6.65,17.24-11.72,3.94-5.03,5.51-10.49,4.55-15.78h0c-1.11-6.09-5.5-11.26-12.38-14.55-4.88-2.34-10.57-3.54-16.56-3.54Z"/>
    <path class="cls-2" d="m97.84,103.23c-1.6,0-3.23-.11-4.86-.34-1.92-.25-3.86-.68-5.78-1.25-4.44-1.34-8.6-3.48-12.02-6.19-.8-.64-1.5-1.32-2.17-1.99l-.24-.24c-.15-.15-.31-.28-.47-.4h-.02c-.49-.39-1.04-.67-1.63-.85-2.42-.73-5.07.43-6.17,2.69l-3.58,7.39-.98-8.15c-.51-4.28-.08-8.86,1.25-13.27,2.28-7.57,6.97-13.9,12.87-17.36.09-.05.16-.09.22-.13,6.73-4.06,16.14-4.86,25.2-2.13,7.12,2.15,13.23,6.2,17.2,11.42,1.99,2.61,3.34,5.38,4.03,8.23.73,3.03.66,6.01-.2,8.86-1.45,4.81-5.11,8.78-10.32,11.18-3.62,1.67-7.87,2.54-12.32,2.54Zm-22.64-14.26c.33.25.64.52.94.81l.25.24c.61.6,1.18,1.17,1.78,1.64,2.95,2.34,6.55,4.19,10.42,5.36,1.67.51,3.37.87,5.03,1.09h.02c10.69,1.49,20.03-2.71,22.23-10h0c1.22-4.05.14-8.59-3.05-12.77-3.36-4.42-8.6-7.87-14.76-9.73-7.8-2.35-15.78-1.73-21.36,1.66l-.2.12c-4.87,2.85-8.78,8.18-10.72,14.61-.6,1.98-.98,3.99-1.15,5.99.15-.08.31-.15.46-.22,2.19-.97,4.66-1.12,6.95-.43,1.15.35,2.22.89,3.17,1.62Z"/>
  </g>
  <g>
    <path class="cls-3" d="m174.27,45.27l-14.82,36.79c-.16.41-.39.71-.67.92-.29.2-.61.3-.98.3-.61,0-1.06-.15-1.34-.46-.29-.3-.43-.68-.43-1.13-.04-.2-.02-.45.06-.73l16.11-39.41c.16-.45.4-.76.7-.95.3-.18.66-.27,1.07-.27.45,0,.82.11,1.13.34.3.22.54.52.7.88l16.04,39.22c.08.24.12.49.12.73,0,.57-.18,1.01-.55,1.31s-.79.46-1.28.46c-.41,0-.76-.11-1.07-.33-.31-.22-.54-.52-.7-.88l-15.19-37.09,1.1.3Zm-11.29,25.62l1.53-3.6h18.91l.73,3.6h-21.17Z"/>
    <path class="cls-3" d="m200.32,83.22c-.57,0-1.03-.18-1.37-.55s-.52-.79-.52-1.28v-27.33c0-.49.18-.92.55-1.28.37-.37.81-.55,1.34-.55s.97.18,1.31.55c.34.37.52.79.52,1.28v9.15l-.92.18c.12-1.42.48-2.84,1.07-4.24.59-1.4,1.39-2.69,2.41-3.87,1.02-1.18,2.23-2.14,3.63-2.87,1.4-.73,2.98-1.1,4.73-1.1.73,0,1.44.15,2.13.46.69.3,1.04.8,1.04,1.49,0,.61-.16,1.08-.49,1.4s-.71.49-1.16.49c-.37,0-.76-.1-1.19-.3-.43-.2-.99-.31-1.68-.31-1.14,0-2.28.34-3.42,1.01s-2.18,1.58-3.11,2.71-1.68,2.41-2.23,3.81c-.55,1.4-.82,2.82-.82,4.24v15.07c0,.49-.18.92-.55,1.28s-.79.55-1.28.55Z"/>
    <path class="cls-3" d="m234.05,51.31c1.79,0,3.46.32,5,.95,1.54.63,2.9,1.44,4.06,2.44,1.16,1,2.06,2.05,2.71,3.17.65,1.12.98,2.19.98,3.2l-.98-1.46v-5.67c0-.53.17-.98.52-1.34.34-.37.78-.55,1.31-.55.57,0,1.02.18,1.34.55.33.37.49.81.49,1.34v26.47c0,3.21-.67,5.94-2.01,8.17-1.34,2.24-3.16,3.93-5.46,5.09-2.3,1.16-4.91,1.74-7.84,1.74-1.42,0-2.92-.18-4.48-.55-1.57-.37-2.91-.83-4.03-1.4-1.12-.57-1.74-1.16-1.86-1.77-.33-.37-.48-.72-.46-1.07.02-.35.19-.64.52-.88.37-.29.78-.32,1.25-.09.47.22,1.15.52,2.04.88.37.12.9.3,1.62.55.71.24,1.54.46,2.5.64.96.18,1.96.27,3.02.27,3.62,0,6.45-1.05,8.48-3.14s3.05-4.83,3.05-8.21v-5.86l.67.18c-.37,1.42-.98,2.68-1.83,3.78-.85,1.1-1.84,2.02-2.96,2.78-1.12.75-2.34,1.32-3.66,1.71-1.32.39-2.63.58-3.93.58-2.81,0-5.34-.71-7.59-2.14-2.26-1.42-4.04-3.35-5.34-5.79-1.3-2.44-1.95-5.23-1.95-8.36s.65-5.87,1.95-8.33c1.3-2.46,3.07-4.39,5.31-5.79,2.24-1.4,4.76-2.11,7.56-2.11Zm.43,3.48c-2.24,0-4.24.55-6.01,1.65-1.77,1.1-3.15,2.61-4.15,4.54-1,1.93-1.49,4.12-1.49,6.56s.5,4.64,1.49,6.59c1,1.95,2.38,3.49,4.15,4.61,1.77,1.12,3.77,1.68,6.01,1.68s4.17-.55,5.92-1.65c1.75-1.1,3.13-2.61,4.15-4.54,1.02-1.93,1.53-4.16,1.53-6.68s-.51-4.74-1.53-6.65c-1.02-1.91-2.4-3.41-4.15-4.48-1.75-1.08-3.72-1.62-5.92-1.62Z"/>
    <path class="cls-3" d="m281.94,52.23c.53,0,.96.18,1.31.55.34.37.52.79.52,1.28v17.2c0,4.03-1.14,7.1-3.42,9.21-2.28,2.12-5.35,3.17-9.21,3.17s-6.92-1.06-9.18-3.17c-2.26-2.11-3.39-5.19-3.39-9.21v-17.2c0-.49.18-.92.55-1.28.37-.37.81-.55,1.34-.55s.97.18,1.31.55c.34.37.52.79.52,1.28v17.2c0,2.93.78,5.16,2.35,6.68,1.57,1.52,3.73,2.29,6.5,2.29s4.99-.76,6.56-2.29c1.57-1.53,2.35-3.75,2.35-6.68v-17.2c0-.49.17-.92.52-1.28.34-.37.8-.55,1.37-.55Z"/>
    <path class="cls-3" d="m306.95,52.66c.49,0,.89.16,1.22.49.32.33.49.73.49,1.22s-.16.89-.49,1.22c-.33.33-.73.49-1.22.49h-14.95c-.45,0-.84-.17-1.19-.52-.35-.34-.52-.74-.52-1.19,0-.53.17-.95.52-1.25.34-.3.74-.46,1.19-.46h14.95Zm-2.32-14.34c.61,0,1.27.06,1.98.18.71.12,1.33.35,1.86.67.53.33.79.77.79,1.34,0,.49-.16.91-.49,1.25-.33.35-.69.52-1.1.52s-.92-.12-1.53-.37-1.26-.37-1.95-.37c-.85,0-1.59.19-2.2.58-.61.39-1.08.94-1.4,1.65-.33.71-.49,1.58-.49,2.59v35.02c0,.49-.17.92-.52,1.28-.35.37-.78.55-1.31.55s-.97-.18-1.31-.55c-.35-.37-.52-.79-.52-1.28v-35.02c0-2.6.76-4.6,2.29-5.98,1.53-1.38,3.49-2.07,5.89-2.07Zm14.7,43.07c0,.49-.18.92-.55,1.28s-.79.55-1.28.55c-.53,0-.97-.18-1.31-.55-.35-.37-.52-.79-.52-1.28v-41.48c0-.49.18-.92.55-1.28.37-.37.79-.55,1.28-.55.53,0,.97.18,1.31.55s.52.79.52,1.28v41.48Z"/>
    <path class="cls-3" d="m358.31,67.6c0,3.09-.67,5.87-2.01,8.33-1.34,2.46-3.17,4.39-5.49,5.8-2.32,1.4-4.96,2.1-7.93,2.1s-5.5-.7-7.84-2.1c-2.34-1.4-4.19-3.33-5.55-5.8-1.36-2.46-2.04-5.24-2.04-8.33s.68-5.92,2.04-8.36c1.36-2.44,3.21-4.37,5.55-5.79,2.34-1.42,4.95-2.14,7.84-2.14s5.61.71,7.93,2.14c2.32,1.42,4.15,3.35,5.49,5.79s2.01,5.23,2.01,8.36Zm-3.66,0c0-2.48-.51-4.69-1.53-6.62-1.02-1.93-2.41-3.45-4.18-4.54-1.77-1.1-3.79-1.65-6.07-1.65s-4.19.55-5.98,1.65c-1.79,1.1-3.2,2.61-4.24,4.54s-1.56,4.14-1.56,6.62.52,4.68,1.56,6.59c1.04,1.91,2.45,3.43,4.24,4.54,1.79,1.12,3.78,1.68,5.98,1.68s4.3-.56,6.07-1.68c1.77-1.12,3.16-2.63,4.18-4.54,1.02-1.91,1.53-4.11,1.53-6.59Z"/>
    <path class="cls-3" d="m403.09,51.37c.49,0,.92.16,1.31.49s.58.77.58,1.34c0,.12-.02.26-.06.43-.04.16-.08.31-.12.43l-9.39,28c-.16.37-.42.66-.76.88-.35.22-.72.31-1.13.27-.69-.04-1.24-.43-1.65-1.16l-8.54-20.25,1.1.24-7.62,20.01c-.33.73-.88,1.12-1.65,1.16-.37.04-.73-.05-1.1-.27s-.61-.52-.73-.88l-9.7-28c-.08-.32-.12-.61-.12-.85,0-.49.17-.92.52-1.28.34-.37.8-.55,1.37-.55.37,0,.7.1,1.01.3.3.2.52.51.64.92l8.66,25.99-1.16-.06,7.87-19.83c.33-.77.89-1.16,1.71-1.16.41,0,.75.1,1.04.3.28.2.51.49.67.85l8.36,19.89-1.4.06,8.6-26.05c.28-.81.85-1.22,1.71-1.22Z"/>
  </g>
</svg>