<?xml version="1.0" encoding="UTF-8"?>
<svg id="Layer_2" data-name="Layer 2" xmlns="http://www.w3.org/2000/svg" xmlns:xlink="http://www.w3.org/1999/xlink" viewBox="0 0 379.03 100">
  <defs>
    <style>
      .cls-1 {
        fill: url(#linear-gradient-2);
      }

      .cls-2 {
        fill: url(#linear-gradient-6);
      }

      .cls-3 {
        fill: #252525;
        font-family: Quicksand-Regular, 'Quicksand Light';
        font-size: 61px;
        font-variation-settings: 'wght' 400;
      }

      .cls-4 {
        fill: url(#linear-gradient-5);
      }

      .cls-5 {
        letter-spacing: -.01em;
      }

      .cls-6 {
        letter-spacing: 0em;
      }

      .cls-7 {
        fill: url(#linear-gradient-3);
      }

      .cls-8 {
        fill: url(#linear-gradient);
      }

      .cls-9 {
        fill: url(#linear-gradient-4);
      }
    </style>
    <linearGradient id="linear-gradient" x1="93.18" y1="25.23" x2="113.13" y2="25.23" gradientUnits="userSpaceOnUse">
      <stop offset="0" stop-color="#a33eb5"/>
      <stop offset="1" stop-color="#c275d0"/>
    </linearGradient>
    <linearGradient id="linear-gradient-2" x1="109.69" y1="38.84" x2="122.91" y2="38.84" gradientUnits="userSpaceOnUse">
      <stop offset="0" stop-color="#d3ff19"/>
      <stop offset="1" stop-color="#e3ff6b"/>
    </linearGradient>
    <linearGradient id="linear-gradient-3" x1="98.8" y1="75.87" x2="107.52" y2="75.87" gradientUnits="userSpaceOnUse">
      <stop offset="0" stop-color="#12848c"/>
      <stop offset="1" stop-color="#17a6b0"/>
    </linearGradient>
    <linearGradient id="linear-gradient-4" x1="0" y1="49.41" x2="85.14" y2="49.41" gradientUnits="userSpaceOnUse">
      <stop offset="0" stop-color="#00dde7"/>
      <stop offset="1" stop-color="#8bfaff"/>
    </linearGradient>
    <linearGradient id="linear-gradient-5" x1="20.63" y1="62.78" x2="98.91" y2="62.78" gradientUnits="userSpaceOnUse">
      <stop offset=".45" stop-color="#d3ff19"/>
      <stop offset="1" stop-color="#e3ff6b"/>
    </linearGradient>
    <linearGradient id="linear-gradient-6" x1="31.55" y1="78.09" x2="93.03" y2="78.09" gradientUnits="userSpaceOnUse">
      <stop offset="0" stop-color="#235761"/>
      <stop offset="1" stop-color="#2e727f"/>
    </linearGradient>
  </defs>
  <g id="Layer_1-2" data-name="Layer 1">
    <g>
      <g>
        <path class="cls-8" d="m103.17,35.2c-3.12,0-6.2-1.46-8.15-4.19-1.54-2.17-2.15-4.82-1.7-7.44.44-2.63,1.89-4.92,4.06-6.47s4.82-2.15,7.44-1.7c2.63.44,4.92,1.89,6.47,4.06h0c3.19,4.48,2.13,10.72-2.36,13.91-1.75,1.24-3.77,1.84-5.76,1.84Zm-.02-15.13c-1.06,0-2.09.33-2.98.95-1.12.8-1.87,1.98-2.1,3.34-.23,1.36.08,2.72.88,3.85,1.65,2.32,4.87,2.86,7.19,1.22,2.32-1.65,2.86-4.87,1.22-7.19h0c-.8-1.12-1.98-1.87-3.34-2.1-.29-.05-.58-.07-.87-.07Z"/>
        <path class="cls-1" d="m116.31,45.45c-2.07,0-4.11-.97-5.4-2.78-2.11-2.97-1.41-7.11,1.56-9.22,1.44-1.02,3.19-1.42,4.93-1.13,1.74.29,3.26,1.25,4.29,2.69,1.02,1.44,1.42,3.19,1.13,4.93-.29,1.74-1.25,3.26-2.69,4.29-1.16.82-2.5,1.22-3.82,1.22Zm-.01-8.4c-.37,0-.73.11-1.03.33-.81.57-1,1.69-.42,2.5.57.81,1.69.99,2.5.42.39-.28.65-.69.73-1.16s-.03-.95-.31-1.34h0c-.28-.39-.69-.65-1.16-.73-.1-.02-.2-.03-.3-.03Z"/>
        <circle class="cls-7" cx="103.16" cy="75.87" r="4.36"/>
        <path class="cls-9" d="m32.73,98.82l-7.04-4.23c-6.02-3.62-11.51-8.77-15.87-14.9C2.35,69.15-1.12,56.8.32,45.78c.02-.15.04-.28.05-.39,1.48-12.7,9.89-25.64,22.52-34.61C32.7,3.82,43.89,0,54.47,0c.14,0,.28,0,.41,0,5.29.05,10.15,1.06,14.44,3,4.51,2.04,8.19,5.02,10.91,8.86,2.37,3.34,3.9,7.15,4.55,11.35.62,4,.42,8.24-.59,12.6-1.99,8.59-7.09,17.22-14.37,24.32-2.25,2.23-4.76,4.32-7.44,6.23-6.21,4.41-13.16,7.64-20.09,9.34-1.59.39-3.18.6-4.71.81l-.57.08c-.42.06-.84.14-1.23.25h-.02c-1.19.32-2.31.84-3.34,1.57-4.19,2.98-5.58,8.47-3.31,13.06l3.64,7.36ZM54.47,4.82c-9.59,0-19.79,3.5-28.78,9.89C14.13,22.92,6.46,34.62,5.15,46l-.02.13c0,.05-.02.12-.02.14v.09c-1.31,9.84,1.85,20.96,8.64,30.53,2.73,3.85,5.94,7.26,9.46,10.09,0-1.26.14-2.53.45-3.78.87-3.53,2.99-6.63,5.96-8.74,1.49-1.06,3.14-1.83,4.89-2.29.6-.16,1.22-.29,1.85-.37.19-.03.39-.05.58-.08,1.47-.2,2.86-.38,4.2-.71,6.35-1.56,12.73-4.53,18.45-8.59,2.47-1.76,4.78-3.69,6.85-5.73h.01c6.63-6.47,11.27-14.27,13.05-21.97,1.78-7.69.67-14.63-3.19-20.07-4.44-6.25-12.07-9.74-21.47-9.83-.12,0-.25,0-.37,0Z"/>
        <path class="cls-4" d="m32.69,98.75l-4.58-6.81c-3.27-4.86-5.59-10.68-6.71-16.85-1.93-10.59-.18-21.15,4.8-28.97.07-.11.13-.21.18-.28,5.61-9.07,16.52-15.87,29.21-18.18,9.97-1.82,19.89-.7,27.93,3.16,3.99,1.91,7.32,4.4,9.88,7.39,2.71,3.16,4.44,6.74,5.15,10.64h0c.62,3.39.42,6.84-.58,10.27-.95,3.26-2.61,6.4-4.92,9.35-4.54,5.79-11.44,10.51-19.44,13.29-2.48.88-5.11,1.58-7.8,2.07-6.23,1.14-12.61,1.12-18.44-.04-1.35-.27-2.62-.67-3.85-1.06l-.45-.14c-.32-.1-.64-.18-.96-.23h-.02c-.95-.18-1.92-.18-2.89,0-3.97.72-6.78,4.16-6.7,8.18l.18,8.21ZM64.88,31.64c-2.77,0-5.59.26-8.43.77-11.39,2.08-21.11,8.06-26,16.02l-.07.11s-.03.05-.05.07l-.05.08c-4.35,6.81-5.86,16.12-4.14,25.54.64,3.5,1.7,6.87,3.14,9.96.38-.69.82-1.35,1.32-1.97,1.95-2.41,4.71-4.04,7.76-4.6,1.54-.28,3.09-.28,4.61,0,.52.09,1.04.22,1.56.38l.46.14c1.16.36,2.25.71,3.34.93,5.24,1.05,10.99,1.06,16.63.03,2.44-.44,4.82-1.07,7.06-1.87h.02c7.14-2.49,13.26-6.65,17.24-11.72,3.94-5.03,5.51-10.49,4.55-15.78h0c-1.11-6.09-5.5-11.26-12.38-14.55-4.88-2.34-10.57-3.54-16.56-3.54Z"/>
        <path class="cls-2" d="m69.69,100c-1.6,0-3.23-.11-4.86-.34-1.92-.25-3.86-.68-5.78-1.25-4.44-1.34-8.6-3.48-12.02-6.19-.8-.64-1.5-1.32-2.17-1.99l-.24-.24c-.15-.15-.31-.28-.47-.4h-.02c-.49-.39-1.04-.67-1.63-.85-2.42-.73-5.07.43-6.17,2.69l-3.58,7.39-.98-8.15c-.51-4.28-.08-8.86,1.25-13.27,2.28-7.57,6.97-13.9,12.87-17.36.09-.05.16-.09.22-.13,6.73-4.06,16.14-4.86,25.2-2.13,7.12,2.15,13.23,6.2,17.2,11.42,1.99,2.61,3.34,5.38,4.03,8.23.73,3.03.66,6.01-.2,8.86-1.45,4.81-5.11,8.78-10.32,11.18-3.62,1.67-7.87,2.54-12.32,2.54Zm-22.64-14.26c.33.25.64.52.94.81l.25.24c.61.6,1.18,1.17,1.78,1.64,2.95,2.34,6.55,4.19,10.42,5.36,1.67.51,3.37.87,5.03,1.09h.02c10.69,1.49,20.03-2.71,22.23-10h0c1.22-4.05.14-8.59-3.05-12.77-3.36-4.42-8.6-7.87-14.76-9.73-7.8-2.35-15.78-1.73-21.36,1.66l-.2.12c-4.87,2.85-8.78,8.18-10.72,14.61-.6,1.98-.98,3.99-1.15,5.99.15-.08.31-.15.46-.22,2.19-.97,4.66-1.12,6.95-.43,1.15.35,2.22.89,3.17,1.62Z"/>
      </g>
      <text class="cls-3" transform="translate(126.11 79.99)"><tspan x="0" y="0">A</tspan><tspan class="cls-5" x="39.41" y="0">r</tspan><tspan class="cls-6" x="61.98" y="0">g</tspan><tspan x="99.56" y="0">uflow</tspan></text>
    </g>
  </g>
</svg>