<?xml version="1.0" encoding="utf-8"?>
<!-- Generator: Adobe Illustrator 27.5.0, SVG Export Plug-In . SVG Version: 6.00 Build 0)  -->
<svg version="1.1" id="Layer_1" xmlns="http://www.w3.org/2000/svg" xmlns:xlink="http://www.w3.org/1999/xlink" x="0px" y="0px"
	 viewBox="0 0 1500 512" style="enable-background:new 0 0 1500 512;" xml:space="preserve">
<style type="text/css">
	.st0{fill:#FFFFFF;}
	.st1{fill:#231F20;}
	.st2{fill:none;stroke:url(#SVGID_1_);stroke-width:6;stroke-miterlimit:10;}
	.st3{fill:none;stroke:url(#SVGID_00000047769067357489820050000010441195183842481286_);stroke-width:6;stroke-miterlimit:10;}
	.st4{fill:#FAF9D0;}
	.st5{fill:none;stroke:url(#SVGID_00000022521328162549858930000010727532905068615573_);stroke-width:6;stroke-miterlimit:10;}
	.st6{fill:none;stroke:url(#SVGID_00000070088197676348852830000009361053951104886174_);stroke-width:6;stroke-miterlimit:10;}
	.st7{fill:none;stroke:url(#SVGID_00000100356385650917338850000011844390037439178913_);stroke-width:6;stroke-miterlimit:10;}
	.st8{fill:none;stroke:#37BBCA;stroke-width:6;stroke-miterlimit:10;}
	.st9{fill:none;stroke:#0191B6;stroke-width:6;stroke-miterlimit:10;}
	.st10{fill:none;stroke:#FF9917;stroke-width:6;stroke-miterlimit:10;}
	.st11{fill:none;stroke:url(#SVGID_00000080192581573625054550000016923679706263577785_);stroke-width:6;stroke-miterlimit:10;}
	.st12{fill:none;stroke:url(#SVGID_00000042710044690895749460000013689999720125901704_);stroke-width:6;stroke-miterlimit:10;}
	.st13{fill:none;stroke:url(#SVGID_00000048474330274225738220000010215816331846903733_);stroke-width:6;stroke-miterlimit:10;}
	.st14{fill:#12848C;}
	.st15{fill:#00DDE7;}
	.st16{fill:#A33EB5;}
	.st17{fill:#D3FF19;}
	.st18{fill:#235761;}
	.st19{fill:#917D76;}
	.st20{fill:#DBC5C3;}
	.st21{fill:#E4B572;}
	.st22{fill:#6CA0AE;}
	.st23{fill:#A8B1B6;}
	.st24{fill:#511F5A;}
	.st25{fill:#FFED0D;}
	.st26{fill:#231F20;stroke:url(#SVGID_00000005957010776975282060000007112213352041241498_);stroke-width:6;stroke-miterlimit:10;}
	.st27{fill:#231F20;stroke:url(#SVGID_00000157293718464443202920000016380756646606086539_);stroke-width:6;stroke-miterlimit:10;}
	.st28{fill:url(#SVGID_00000112609867964695570090000017616687435882079670_);}
	.st29{fill:#231F20;stroke:url(#SVGID_00000027573614641050468510000008261707740195276196_);stroke-width:6;stroke-miterlimit:10;}
	.st30{fill:#231F20;stroke:url(#SVGID_00000112617172184771183830000002482333592255123882_);stroke-width:6;stroke-miterlimit:10;}
	.st31{fill:#231F20;stroke:url(#SVGID_00000083796645390043378020000001610166677002633626_);stroke-width:6;stroke-miterlimit:10;}
	.st32{fill:#FFFFFF;stroke:url(#SVGID_00000137098936717629803190000004956872937393733792_);stroke-width:6;stroke-miterlimit:10;}
	.st33{fill:#FFFFFF;stroke:url(#SVGID_00000098940821094485943590000001007923104490326937_);stroke-width:6;stroke-miterlimit:10;}
	.st34{fill:url(#SVGID_00000126297522659732823370000010224026194085294493_);}
	.st35{fill:#FFFFFF;stroke:url(#SVGID_00000160900169946259231460000012223792679865343144_);stroke-width:6;stroke-miterlimit:10;}
	.st36{fill:#FFFFFF;stroke:url(#SVGID_00000116202633095776600330000016892624389202993851_);stroke-width:6;stroke-miterlimit:10;}
	.st37{fill:#FFFFFF;stroke:url(#SVGID_00000135659242062286732400000011865109850543021971_);stroke-width:6;stroke-miterlimit:10;}
	.st38{fill:#231F20;stroke:#511F5A;stroke-width:6;stroke-miterlimit:10;}
	.st39{fill:#231F20;stroke:#E4B572;stroke-width:6;stroke-miterlimit:10;}
	.st40{fill:#231F20;stroke:#A33EB5;stroke-width:6;stroke-miterlimit:10;}
	.st41{fill:#231F20;stroke:#FFED0D;stroke-width:6;stroke-miterlimit:10;}
	.st42{fill:#231F20;stroke:#00DDE7;stroke-width:6;stroke-miterlimit:10;}
	.st43{fill:url(#SVGID_00000066490236299742884470000015543417267515555251_);}
	.st44{fill:url(#SVGID_00000107560578554635824140000006558675102661338252_);}
	.st45{fill:url(#SVGID_00000023271560561598450310000012027612323137075617_);}
	.st46{fill:url(#SVGID_00000155834366604116514160000009794297626055818120_);}
	.st47{fill:url(#SVGID_00000146499031763253777240000009805411622362151338_);}
	.st48{fill:url(#SVGID_00000142897352954174406520000010476089149476610216_);}
	.st49{fill:url(#SVGID_00000073706419046357847830000006981191457618946948_);}
	.st50{fill:url(#SVGID_00000070108377533050791840000007307762635983198347_);}
	.st51{fill:url(#SVGID_00000089534874586033592460000006142834562297026184_);}
	.st52{fill:url(#SVGID_00000069372642910101263530000007288176235473595574_);}
	.st53{fill:url(#SVGID_00000124150621303850172440000010603516688347642302_);}
	.st54{fill:url(#SVGID_00000096738466601805387990000015832939747520534665_);}
	.st55{fill:url(#SVGID_00000113332566021775956430000007042799666695493259_);}
	.st56{fill:url(#SVGID_00000047747557671334624610000001856473617022780580_);}
	.st57{fill:url(#SVGID_00000117657709487493760290000003998313718566347904_);}
	.st58{fill:url(#SVGID_00000060728037601271085300000004989426658067734704_);}
	.st59{fill:url(#SVGID_00000013189268034415061670000009015882974772638901_);}
	.st60{fill:url(#SVGID_00000173128074961161197840000005431120805958058635_);}
	.st61{fill:#231F20;stroke:url(#SVGID_00000134232327864597043410000001819386089430928789_);stroke-width:6;stroke-miterlimit:10;}
	.st62{fill:#231F20;stroke:url(#SVGID_00000013168626474497409600000012309454970689786031_);stroke-width:6;stroke-miterlimit:10;}
	.st63{fill:#231F20;stroke:url(#SVGID_00000042002822794850016110000015582821787195078555_);stroke-width:6;stroke-miterlimit:10;}
	.st64{fill:none;stroke:url(#SVGID_00000137110718672983279850000013438069501716070576_);stroke-width:6;stroke-miterlimit:10;}
	.st65{fill:none;stroke:url(#SVGID_00000070119175602161055160000017611306882950354048_);stroke-width:6;stroke-miterlimit:10;}
	.st66{fill:none;stroke:url(#SVGID_00000020383819330582440720000007720519167732818336_);stroke-width:6;stroke-miterlimit:10;}
	.st67{fill:none;stroke:url(#SVGID_00000155122302915026945450000007225509074802662040_);stroke-width:6;stroke-miterlimit:10;}
	.st68{fill:none;stroke:url(#SVGID_00000020374654924415049150000006407901452482021567_);stroke-width:6;stroke-miterlimit:10;}
	.st69{fill:none;stroke:url(#SVGID_00000029018659954505397910000001540204492011605654_);stroke-width:47;stroke-miterlimit:10;}
	.st70{fill:none;stroke:url(#SVGID_00000078754804360999328550000009514081189228159392_);stroke-width:47;stroke-miterlimit:10;}
	.st71{fill:url(#SVGID_00000085234678284529151510000007827081677782349743_);}
	.st72{fill:none;stroke:url(#SVGID_00000076605639721937319070000015932819548510460841_);stroke-width:47;stroke-miterlimit:10;}
	.st73{fill:none;stroke:url(#SVGID_00000149383953675348754560000004418316376353468826_);stroke-width:47;stroke-miterlimit:10;}
	.st74{fill:none;stroke:url(#SVGID_00000160162942491097751980000010584602171180758917_);stroke-width:47;stroke-miterlimit:10;}
	.st75{fill:url(#SVGID_00000046324760124776479290000010722279132269199531_);}
	.st76{fill:url(#SVGID_00000152969230478251410220000013566611225860056222_);}
	.st77{fill:url(#SVGID_00000038406279210928877580000000650165209784767416_);}
	.st78{fill:url(#SVGID_00000116914519210507939230000014352822810076285319_);}
	.st79{fill:url(#SVGID_00000098204514875286033540000011244609127211951005_);}
	.st80{fill:url(#SVGID_00000181808964551877874810000012886641899925401740_);}
	.st81{fill:url(#SVGID_00000061473430715841543190000002568751002962597290_);}
	.st82{fill:url(#SVGID_00000173136232552503290450000006060868695671417503_);}
	.st83{fill:url(#SVGID_00000150098667476589148640000011832051491488795783_);}
	.st84{fill:url(#SVGID_00000021111673244868949160000009418948302065194167_);}
	.st85{fill:url(#SVGID_00000097478353399016735390000016563567359099293578_);}
	.st86{fill:url(#SVGID_00000120525774847200074710000004716535450302598283_);}
	.st87{fill:url(#SVGID_00000093866639992912518940000017578145672989412537_);}
	.st88{fill:url(#SVGID_00000052822626078594400300000000133861217666914443_);}
	.st89{fill:url(#SVGID_00000032636426725154468660000003834537165638440861_);}
	.st90{fill:url(#SVGID_00000115475051423244607180000016480518889680137103_);}
	.st91{fill:url(#SVGID_00000098943255128104157170000012846107450117681845_);}
	.st92{fill:url(#SVGID_00000050645962684742195100000001124733808096119937_);}
	.st93{fill:url(#SVGID_00000156563796561805917460000007586930466769054123_);}
	.st94{fill:url(#SVGID_00000115481114193915627280000007094400069017702843_);}
	.st95{fill:url(#SVGID_00000150789579953901428010000002836502999859587229_);}
	.st96{fill:url(#SVGID_00000078007833982922438810000009179464426846333094_);}
	.st97{fill:url(#SVGID_00000044165754394610686680000011291010666725552827_);}
	.st98{fill:url(#SVGID_00000047769279019518706300000016302453515776020660_);}
	.st99{fill:url(#SVGID_00000121957993877469844960000015863976798832966273_);}
	.st100{fill:url(#SVGID_00000132804824324360970530000013436479147223396742_);}
	.st101{fill:url(#SVGID_00000117661205400147245220000016095971078707860401_);}
	.st102{fill:url(#SVGID_00000138546032002114095810000010624196229793697952_);}
	.st103{fill:url(#SVGID_00000109712890684959373330000008692164634592057520_);}
	.st104{fill:url(#SVGID_00000056419249766904654500000005545643609670026141_);}
	.st105{fill:url(#SVGID_00000037688549880163907890000014709551485744292792_);}
	.st106{fill:url(#SVGID_00000096770293255883169210000014928886635522051000_);}
	.st107{fill:url(#SVGID_00000090980472307224736740000004315876876321669538_);}
	.st108{fill:url(#SVGID_00000126291206046217548270000004422934655415609740_);}
	.st109{fill:url(#SVGID_00000142890409153666133170000007098253602256709507_);}
	.st110{fill:url(#SVGID_00000079444667069038071370000006496304978619196848_);}
	.st111{fill:#252525;}
	.st112{fill:url(#SVGID_00000031929496598687615000000013560814834160538020_);}
	.st113{fill:url(#SVGID_00000147927178521707727600000004272293940581771197_);}
	.st114{fill:url(#SVGID_00000013165123799925749200000007549110026832918934_);}
	.st115{fill:url(#SVGID_00000127020349707060787140000004584188656521803159_);}
	.st116{fill:url(#SVGID_00000138536780473229397240000000149230570971256744_);}
	.st117{fill:url(#SVGID_00000121958797909376777990000004323914243585739930_);}
	.st118{fill:url(#SVGID_00000093888599697252539280000010072836100910629022_);}
	.st119{fill:url(#SVGID_00000032617000969343330880000002825354184894534820_);}
	.st120{fill:url(#SVGID_00000134241309826246953710000011836842330180604806_);}
	.st121{fill:url(#SVGID_00000101823922816494307240000000968821850079127183_);}
	.st122{fill:url(#SVGID_00000103968639895662232900000011589049926234222745_);}
	.st123{fill:url(#SVGID_00000166651239141497743580000013796346415136459684_);}
	.st124{fill:url(#SVGID_00000100363942413014810380000018236328546367467409_);}
	.st125{fill:url(#SVGID_00000152255648073085704190000003162716872692113281_);}
	.st126{fill:url(#SVGID_00000046306124948520666540000007804470662596020130_);}
	.st127{fill:url(#SVGID_00000176040066712530496740000014604891606499829435_);}
	.st128{fill:url(#SVGID_00000147905069960141976830000005798907054191027351_);}
	.st129{fill:url(#SVGID_00000057142472902635976140000017691425728716190390_);}
	.st130{fill:url(#SVGID_00000039818379819282635380000013538185734518161853_);}
	.st131{fill:url(#SVGID_00000132057649510171543550000016095845969603806640_);}
	.st132{fill:url(#SVGID_00000179637434711950458190000010406434592807893431_);}
	.st133{fill:url(#SVGID_00000016788685352972070070000008682321320639963805_);}
	.st134{fill:url(#SVGID_00000119076340370377271320000013492701707830781344_);}
	.st135{fill:url(#SVGID_00000126312707781287123590000017807507391958061964_);}
	.st136{fill:url(#SVGID_00000019640406422819565490000003487418748479405195_);}
	.st137{fill:url(#SVGID_00000165950638049202161490000004001732938663193743_);}
	.st138{fill:none;stroke:#FFFFFF;stroke-width:3;stroke-linecap:round;stroke-linejoin:round;}
	.st139{opacity:0.65;}
	.st140{opacity:0.75;}
	.st141{opacity:0.75;fill:#D3FF19;}
	.st142{opacity:0.75;fill:#A33EB5;}
	.st143{fill:url(#SVGID_00000011728932618489935750000005969414002645452222_);}
	.st144{fill:url(#SVGID_00000090290455335032911410000002894657152817046159_);}
	.st145{fill:url(#SVGID_00000124866984331772773040000013663582450197129123_);}
	.st146{fill:url(#SVGID_00000060714623178480956200000011512709350540201617_);}
	.st147{fill:url(#SVGID_00000158710776982056971690000015149743303487184309_);}
	.st148{fill:url(#SVGID_00000108308437238023847630000005904547364667896471_);}
	.st149{fill:url(#SVGID_00000097497763921385581400000014496752013445543082_);}
	.st150{fill:url(#SVGID_00000003819478777990387870000013515545498068140426_);}
	.st151{fill:url(#SVGID_00000082344065774887495840000015402342424605606805_);}
	.st152{fill:url(#SVGID_00000160183548307232531890000009818948568343478425_);}
	.st153{fill:url(#SVGID_00000002344372690595338490000015577334852231432617_);}
	.st154{fill:url(#SVGID_00000094610197976138052500000015661581017035024549_);}
	.st155{fill:url(#SVGID_00000072250087291846349710000003833613282574371985_);}
	.st156{fill:url(#SVGID_00000138549214134724219460000012782446583429057435_);}
	.st157{fill:url(#SVGID_00000070088856484116720840000016586986154248285091_);}
	.st158{fill:url(#SVGID_00000132781131734805019700000013260022686159659149_);}
	.st159{fill:url(#SVGID_00000039122810693482377520000000642182616940123325_);}
	.st160{fill:url(#SVGID_00000046312261057978136180000000051846735593087105_);}
	.st161{fill:url(#SVGID_00000178178426505694355480000011415989733656276889_);}
	.st162{fill:url(#SVGID_00000142884025148610855430000017224155404940432313_);}
	.st163{fill:url(#SVGID_00000165227899786819090070000005609391583825520057_);}
	.st164{fill:url(#SVGID_00000087376581290808818500000012457196200454663579_);}
	.st165{fill:url(#SVGID_00000012465125581622704810000001115412079732772276_);}
	.st166{fill:url(#SVGID_00000023243532980373135550000004877259693083318710_);}
	.st167{fill:none;stroke:#A33EB5;stroke-width:46;stroke-miterlimit:10;}
	.st168{fill:none;stroke:#235761;stroke-width:46;stroke-miterlimit:10;}
	.st169{fill:none;stroke:#12848C;stroke-width:46;stroke-miterlimit:10;}
	.st170{fill:none;stroke:#00DDE7;stroke-width:46;stroke-miterlimit:10;}
	.st171{fill:none;stroke:#D3FF19;stroke-width:46;stroke-miterlimit:10;}
</style>
<g>
	<g>
		<linearGradient id="SVGID_1_" gradientUnits="userSpaceOnUse" x1="418.4989" y1="170.7531" x2="487.1483" y2="170.7531">
			<stop  offset="0" style="stop-color:#A33EB5"/>
			<stop  offset="1" style="stop-color:#C275D0"/>
		</linearGradient>
		<path style="fill:url(#SVGID_1_);" d="M452.88,205.08c-10.75,0-21.35-5.02-28.03-14.44c-5.31-7.47-7.39-16.57-5.86-25.61
			c1.53-9.04,6.49-16.94,13.97-22.25c7.47-5.31,16.57-7.39,25.61-5.86c9.04,1.53,16.94,6.49,22.25,13.97l0,0
			c10.96,15.43,7.33,36.9-8.11,47.86C466.69,203.02,459.76,205.08,452.88,205.08z M452.8,153.02c-3.65,0-7.2,1.13-10.24,3.28
			c-3.86,2.74-6.43,6.83-7.22,11.5c-0.79,4.67,0.28,9.37,3.03,13.24c5.67,7.98,16.76,9.86,24.74,4.19
			c7.98-5.67,9.85-16.76,4.19-24.74l0,0c-2.74-3.86-6.83-6.43-11.5-7.22C454.79,153.1,453.79,153.02,452.8,153.02z"/>
		
			<linearGradient id="SVGID_00000012443359380465772310000010001260765268203678_" gradientUnits="userSpaceOnUse" x1="475.3153" y1="217.6021" x2="520.8085" y2="217.6021">
			<stop  offset="0" style="stop-color:#D3FF19"/>
			<stop  offset="1" style="stop-color:#E3FF6B"/>
		</linearGradient>
		<path style="fill:url(#SVGID_00000012443359380465772310000010001260765268203678_);" d="M498.09,240.35
			c-7.12,0-14.15-3.33-18.58-9.57c-7.26-10.23-4.85-24.45,5.37-31.72c4.95-3.52,10.98-4.9,16.97-3.88
			c5.99,1.01,11.23,4.3,14.75,9.25c3.52,4.95,4.9,10.98,3.88,16.97c-1.01,5.99-4.3,11.23-9.25,14.75
			C507.24,238.99,502.64,240.35,498.09,240.35z M498.04,211.44c-1.27,0-2.5,0.39-3.56,1.14c-2.77,1.97-3.42,5.83-1.46,8.6
			c1.97,2.77,5.82,3.42,8.6,1.46c1.34-0.95,2.23-2.37,2.51-4s-0.1-3.26-1.05-4.6l0,0c-0.95-1.34-2.37-2.23-4-2.51
			C498.74,211.47,498.39,211.44,498.04,211.44z"/>
		
			<linearGradient id="SVGID_00000007416104485234077170000003792068082046382511_" gradientUnits="userSpaceOnUse" x1="437.8271" y1="345.0239" x2="467.8405" y2="345.0239">
			<stop  offset="0" style="stop-color:#12848C"/>
			<stop  offset="1" style="stop-color:#17A6B0"/>
		</linearGradient>
		<circle style="fill:url(#SVGID_00000007416104485234077170000003792068082046382511_);" cx="452.83" cy="345.02" r="15.01"/>
		
			<linearGradient id="SVGID_00000100349310562575522810000009663749488071347586_" gradientUnits="userSpaceOnUse" x1="97.863" y1="253.9695" x2="390.8227" y2="253.9695">
			<stop  offset="0" style="stop-color:#00DDE7"/>
			<stop  offset="1" style="stop-color:#8BFAFF"/>
		</linearGradient>
		<path style="fill:url(#SVGID_00000100349310562575522810000009663749488071347586_);" d="M210.5,423.99l-24.21-14.55
			c-20.73-12.45-39.61-30.19-54.6-51.28c-25.75-36.25-37.67-78.77-32.72-116.69c0.05-0.52,0.12-0.97,0.18-1.33
			c5.08-43.71,34.04-88.22,77.51-119.1c33.72-23.95,72.25-37.1,108.65-37.1c0.48,0,0.95,0,1.43,0.01
			c18.22,0.17,34.94,3.64,49.69,10.32c15.53,7.03,28.17,17.29,37.55,30.5c8.15,11.48,13.42,24.62,15.65,39.06
			c2.13,13.76,1.44,28.35-2.03,43.35c-6.83,29.55-24.4,59.27-49.46,83.69c-7.75,7.66-16.37,14.87-25.61,21.43
			c-21.36,15.17-45.27,26.28-69.15,32.14c-5.48,1.34-10.94,2.07-16.22,2.77l-1.96,0.26c-1.46,0.2-2.89,0.48-4.25,0.85l-0.08,0.02
			c-4.1,1.07-7.96,2.88-11.48,5.38c-14.41,10.24-19.21,29.14-11.4,44.94L210.5,423.99z M285.29,100.53
			c-32.98,0-68.1,12.06-99.04,34.04c-39.76,28.25-66.18,68.5-70.66,107.68l-0.06,0.44c-0.03,0.18-0.07,0.41-0.08,0.49l-0.04,0.33
			c-4.46,33.84,6.4,72.14,29.78,105.05c9.4,13.23,20.45,25,32.54,34.73c-0.03-4.35,0.48-8.71,1.54-13
			c3.01-12.14,10.29-22.83,20.5-30.08c5.14-3.65,10.81-6.31,16.84-7.89c2.05-0.56,4.19-0.99,6.35-1.28
			c0.66-0.09,1.33-0.18,1.99-0.27c5.06-0.67,9.85-1.31,14.46-2.44c21.87-5.36,43.82-15.58,63.49-29.55
			c8.52-6.05,16.45-12.69,23.57-19.73l0.04-0.04c22.83-22.23,38.78-49.07,44.9-75.57c6.12-26.46,2.32-50.34-10.99-69.07
			c-15.28-21.51-41.52-33.53-73.88-33.84C286.15,100.53,285.72,100.53,285.29,100.53z"/>
		
			<linearGradient id="SVGID_00000022541731214650390630000007365051572178234267_" gradientUnits="userSpaceOnUse" x1="168.8515" y1="299.9934" x2="438.2277" y2="299.9934">
			<stop  offset="0.4469" style="stop-color:#D3FF19"/>
			<stop  offset="1" style="stop-color:#E3FF6B"/>
		</linearGradient>
		<path style="fill:url(#SVGID_00000022541731214650390630000007365051572178234267_);" d="M210.37,423.75l-15.77-23.43
			c-11.25-16.72-19.24-36.76-23.11-57.97c-6.64-36.44-0.62-72.76,16.52-99.67c0.23-0.38,0.45-0.71,0.62-0.97
			c19.29-31.23,56.85-54.6,100.52-62.56c34.32-6.25,68.45-2.39,96.13,10.87c13.74,6.58,25.18,15.14,34.01,25.44
			c9.32,10.88,15.29,23.2,17.73,36.61l0,0c2.12,11.65,1.45,23.54-1.99,35.33c-3.27,11.21-8.96,22.03-16.92,32.18
			c-15.61,19.92-39.36,36.16-66.89,45.74c-8.55,3.04-17.58,5.44-26.85,7.13c-21.44,3.91-43.39,3.85-63.46-0.15
			c-4.64-0.93-9.01-2.3-13.24-3.64l-1.56-0.49c-1.1-0.34-2.2-0.61-3.29-0.8l-0.08-0.01c-3.27-0.6-6.61-0.6-9.94,0.01
			c-13.65,2.49-23.34,14.32-23.04,28.14L210.37,423.75z M321.14,192.81c-9.52,0-19.24,0.88-29.01,2.66
			c-39.2,7.14-72.65,27.75-89.48,55.12l-0.25,0.38c-0.06,0.08-0.12,0.17-0.17,0.26l-0.16,0.26c-14.97,23.43-20.16,55.47-14.26,87.89
			c2.19,12.04,5.86,23.63,10.79,34.29c1.29-2.38,2.81-4.65,4.53-6.79c6.71-8.29,16.2-13.92,26.7-15.83
			c5.29-0.96,10.63-0.97,15.86-0.01c1.79,0.31,3.59,0.75,5.37,1.31l1.58,0.5c3.98,1.25,7.74,2.44,11.5,3.19
			c18.04,3.6,37.83,3.64,57.24,0.1c8.4-1.53,16.57-3.7,24.29-6.44l0.06-0.02c24.58-8.55,45.64-22.87,59.32-40.32
			c13.56-17.3,18.97-36.08,15.65-54.31l0,0c-3.82-20.95-18.94-38.73-42.59-50.07C361.32,196.93,341.73,192.81,321.14,192.81z"/>
		
			<linearGradient id="SVGID_00000121972064771456188200000015550646468096984467_" gradientUnits="userSpaceOnUse" x1="206.4379" y1="352.6487" x2="417.9843" y2="352.6487">
			<stop  offset="0" style="stop-color:#235761"/>
			<stop  offset="1" style="stop-color:#2E727F"/>
		</linearGradient>
		<path style="fill:url(#SVGID_00000121972064771456188200000015550646468096984467_);" d="M337.69,428.05
			c-5.52,0-11.12-0.39-16.73-1.17c-6.59-0.87-13.29-2.32-19.89-4.32c-15.3-4.61-29.6-11.98-41.37-21.31
			c-2.77-2.19-5.16-4.55-7.47-6.83l-0.84-0.82c-0.52-0.51-1.06-0.98-1.61-1.39l-0.06-0.05c-1.67-1.28-3.57-2.25-5.62-2.87
			c-8.32-2.51-17.45,1.47-21.23,9.26l-12.33,25.42l-3.36-28.05c-1.76-14.72-0.28-30.5,4.29-45.65c7.86-26.06,24-47.83,44.29-59.75
			c0.29-0.18,0.55-0.33,0.76-0.44c23.15-13.98,55.55-16.72,86.73-7.32c24.5,7.39,45.52,21.34,59.19,39.3
			c6.84,8.98,11.5,18.51,13.85,28.31c2.5,10.43,2.27,20.69-0.68,30.48c-4.99,16.54-17.6,30.21-35.5,38.49
			C367.64,425.08,353,428.05,337.69,428.05z M259.76,378.98c1.12,0.85,2.21,1.78,3.24,2.79l0.86,0.84c2.09,2.06,4.07,4.01,6.13,5.65
			c10.15,8.04,22.55,14.42,35.86,18.43c5.76,1.74,11.59,3,17.3,3.76l0.06,0.01c36.77,5.12,68.94-9.35,76.5-34.4l0,0
			c4.2-13.94,0.48-29.55-10.49-43.96c-11.57-15.2-29.6-27.08-50.78-33.47c-26.83-8.09-54.31-5.95-73.51,5.73l-0.7,0.4
			c-16.77,9.81-30.22,28.14-36.9,50.29c-2.05,6.81-3.38,13.75-3.96,20.6c0.52-0.26,1.06-0.52,1.6-0.76
			c7.53-3.34,16.02-3.86,23.91-1.49C252.84,374.61,256.5,376.49,259.76,378.98z"/>
	</g>
	<g>
		<path class="st16" d="M600.67,207.63l-51.01,126.58c-0.56,1.4-1.33,2.45-2.31,3.15c-0.98,0.7-2.1,1.05-3.36,1.05
			c-2.1,0-3.64-0.52-4.62-1.57c-0.98-1.05-1.47-2.34-1.47-3.88c-0.14-0.7-0.07-1.54,0.21-2.52l55.42-135.61
			c0.56-1.54,1.36-2.62,2.41-3.25c1.05-0.63,2.27-0.94,3.67-0.94c1.54,0,2.83,0.39,3.88,1.15c1.05,0.77,1.85,1.78,2.41,3.04
			l55.21,134.98c0.28,0.84,0.42,1.68,0.42,2.52c0,1.96-0.63,3.46-1.89,4.51s-2.73,1.57-4.41,1.57c-1.4,0-2.62-0.38-3.67-1.15
			c-1.05-0.77-1.86-1.78-2.41-3.04L596.9,206.58L600.67,207.63z M561.84,295.8l5.25-12.39h65.08l2.52,12.39H561.84z"/>
		<path class="st16" d="M690.31,338.2c-1.96,0-3.54-0.63-4.72-1.89c-1.19-1.26-1.78-2.73-1.78-4.41v-94.04
			c0-1.68,0.63-3.15,1.89-4.41c1.26-1.26,2.8-1.89,4.62-1.89c1.82,0,3.32,0.63,4.51,1.89c1.19,1.26,1.78,2.73,1.78,4.41v31.49
			l-3.15,0.63c0.42-4.9,1.64-9.76,3.67-14.59c2.03-4.83,4.79-9.27,8.29-13.33c3.5-4.06,7.66-7.35,12.49-9.87
			c4.83-2.52,10.25-3.78,16.27-3.78c2.52,0,4.97,0.53,7.35,1.57c2.38,1.05,3.57,2.77,3.57,5.14c0,2.1-0.56,3.71-1.68,4.83
			c-1.12,1.12-2.45,1.68-3.99,1.68c-1.26,0-2.62-0.35-4.09-1.05c-1.47-0.7-3.4-1.05-5.77-1.05c-3.92,0-7.84,1.15-11.75,3.46
			c-3.92,2.31-7.49,5.42-10.71,9.34c-3.22,3.92-5.77,8.29-7.66,13.12s-2.83,9.69-2.83,14.59v51.85c0,1.68-0.63,3.15-1.89,4.41
			C693.46,337.57,691.99,338.2,690.31,338.2z"/>
		<path class="st16" d="M806.39,228.41c6.16,0,11.89,1.09,17.21,3.25c5.32,2.17,9.97,4.97,13.96,8.4c3.99,3.43,7.1,7.07,9.34,10.92
			c2.24,3.85,3.36,7.52,3.36,11.02l-3.36-5.04v-19.52c0-1.82,0.59-3.36,1.79-4.62c1.19-1.26,2.69-1.89,4.51-1.89
			c1.96,0,3.5,0.63,4.62,1.89c1.12,1.26,1.68,2.8,1.68,4.62v91.11c0,11.05-2.31,20.43-6.93,28.13c-4.62,7.7-10.88,13.54-18.79,17.53
			c-7.91,3.99-16.9,5.98-26.97,5.98c-4.9,0-10.04-0.63-15.43-1.89c-5.39-1.26-10.01-2.87-13.85-4.83c-3.85-1.96-5.98-3.99-6.4-6.09
			c-1.12-1.26-1.65-2.49-1.57-3.67c0.07-1.19,0.66-2.2,1.78-3.04c1.26-0.98,2.69-1.08,4.3-0.31c1.61,0.77,3.95,1.78,7.03,3.04
			c1.26,0.42,3.11,1.05,5.56,1.89c2.45,0.84,5.32,1.57,8.61,2.2c3.29,0.63,6.75,0.94,10.39,0.94c12.45,0,22.18-3.6,29.18-10.81
			c7-7.21,10.5-16.62,10.5-28.23v-20.15l2.31,0.63c-1.26,4.9-3.36,9.24-6.3,13.01c-2.94,3.78-6.33,6.96-10.18,9.55
			c-3.85,2.59-8.05,4.55-12.6,5.88c-4.55,1.33-9.06,2-13.54,2c-9.66,0-18.37-2.45-26.14-7.35c-7.77-4.9-13.89-11.55-18.37-19.94
			c-4.48-8.4-6.72-17.98-6.72-28.76c0-10.63,2.24-20.19,6.72-28.65c4.48-8.47,10.56-15.11,18.26-19.94
			C788.06,230.83,796.74,228.41,806.39,228.41z M807.86,240.38c-7.7,0-14.59,1.89-20.68,5.67c-6.09,3.78-10.85,8.99-14.27,15.64
			c-3.43,6.65-5.14,14.17-5.14,22.57s1.71,15.95,5.14,22.67c3.43,6.72,8.19,12,14.27,15.85c6.09,3.85,12.98,5.77,20.68,5.77
			c7.56,0,14.34-1.89,20.36-5.67c6.02-3.78,10.78-8.99,14.27-15.64c3.5-6.65,5.25-14.31,5.25-22.99c0-8.68-1.75-16.3-5.25-22.88
			c-3.5-6.58-8.26-11.72-14.27-15.43C822.21,242.23,815.42,240.38,807.86,240.38z"/>
		<path class="st16" d="M971.18,231.56c1.82,0,3.32,0.63,4.51,1.89c1.19,1.26,1.78,2.73,1.78,4.41v59.2
			c0,13.86-3.92,24.42-11.75,31.7c-7.84,7.28-18.4,10.92-31.7,10.92c-13.3,0-23.83-3.64-31.59-10.92
			c-7.77-7.28-11.65-17.84-11.65-31.7v-59.2c0-1.68,0.63-3.15,1.89-4.41c1.26-1.26,2.8-1.89,4.62-1.89c1.82,0,3.32,0.63,4.51,1.89
			c1.19,1.26,1.78,2.73,1.78,4.41v59.2c0,10.08,2.69,17.74,8.08,22.99c5.39,5.25,12.84,7.87,22.36,7.87
			c9.66,0,17.18-2.62,22.57-7.87c5.39-5.25,8.08-12.91,8.08-22.99v-59.2c0-1.68,0.59-3.15,1.78-4.41
			C967.64,232.19,969.22,231.56,971.18,231.56z"/>
		<path class="st16" d="M1057.24,233.03c1.68,0,3.08,0.56,4.2,1.68c1.12,1.12,1.68,2.52,1.68,4.2s-0.56,3.08-1.68,4.2
			c-1.12,1.12-2.52,1.68-4.2,1.68h-51.43c-1.54,0-2.91-0.59-4.09-1.78c-1.19-1.19-1.78-2.55-1.78-4.09c0-1.82,0.59-3.25,1.78-4.3
			c1.19-1.05,2.55-1.57,4.09-1.57H1057.24z M1049.27,183.7c2.1,0,4.37,0.21,6.82,0.63c2.45,0.42,4.58,1.19,6.4,2.31
			c1.82,1.12,2.73,2.66,2.73,4.62c0,1.68-0.56,3.12-1.68,4.3c-1.12,1.19-2.38,1.79-3.78,1.79c-1.4,0-3.15-0.42-5.25-1.26
			c-2.1-0.84-4.34-1.26-6.72-1.26c-2.94,0-5.46,0.67-7.56,1.99c-2.1,1.33-3.71,3.22-4.83,5.67c-1.12,2.45-1.68,5.42-1.68,8.92V331.9
			c0,1.68-0.6,3.15-1.78,4.41c-1.19,1.26-2.7,1.89-4.51,1.89c-1.82,0-3.33-0.63-4.51-1.89c-1.19-1.26-1.79-2.73-1.79-4.41V211.41
			c0-8.96,2.62-15.81,7.87-20.57C1034.26,186.08,1041.01,183.7,1049.27,183.7z M1099.86,331.9c0,1.68-0.63,3.15-1.89,4.41
			c-1.26,1.26-2.73,1.89-4.41,1.89c-1.82,0-3.33-0.63-4.51-1.89c-1.19-1.26-1.78-2.73-1.78-4.41V189.16c0-1.68,0.63-3.15,1.89-4.41
			c1.26-1.26,2.73-1.89,4.41-1.89c1.82,0,3.32,0.63,4.51,1.89c1.19,1.26,1.79,2.73,1.79,4.41V331.9z"/>
		<path class="st16" d="M1233.99,284.46c0,10.64-2.31,20.19-6.93,28.65c-4.62,8.47-10.92,15.11-18.89,19.94
			c-7.98,4.83-17.08,7.24-27.29,7.24c-9.94,0-18.93-2.41-26.97-7.24c-8.05-4.83-14.42-11.47-19.1-19.94
			c-4.69-8.47-7.03-18.02-7.03-28.65c0-10.77,2.34-20.36,7.03-28.76c4.69-8.4,11.05-15.04,19.1-19.94
			c8.05-4.9,17.04-7.35,26.97-7.35c10.21,0,19.31,2.45,27.29,7.35c7.98,4.9,14.27,11.54,18.89,19.94
			C1231.68,264.1,1233.99,273.69,1233.99,284.46z M1221.4,284.46c0-8.53-1.75-16.13-5.25-22.78c-3.5-6.65-8.29-11.86-14.38-15.64
			c-6.09-3.78-13.05-5.67-20.89-5.67c-7.56,0-14.42,1.89-20.57,5.67c-6.16,3.78-11.02,8.99-14.59,15.64
			c-3.57,6.65-5.35,14.24-5.35,22.78c0,8.54,1.79,16.09,5.35,22.67c3.57,6.58,8.43,11.79,14.59,15.64
			c6.16,3.85,13.02,5.77,20.57,5.77c7.84,0,14.8-1.92,20.89-5.77c6.09-3.85,10.88-9.06,14.38-15.64
			C1219.65,300.56,1221.4,293,1221.4,284.46z"/>
		<path class="st16" d="M1388.07,228.62c1.68,0,3.18,0.56,4.51,1.68c1.33,1.12,2,2.66,2,4.62c0,0.42-0.07,0.91-0.21,1.47
			c-0.14,0.56-0.28,1.05-0.42,1.47l-32.33,96.35c-0.56,1.26-1.44,2.28-2.62,3.04c-1.19,0.77-2.49,1.08-3.88,0.94
			c-2.38-0.14-4.27-1.47-5.67-3.99l-29.39-69.69l3.78,0.84l-26.24,68.85c-1.12,2.52-3.01,3.85-5.67,3.99
			c-1.26,0.14-2.52-0.17-3.78-0.94c-1.26-0.77-2.1-1.78-2.52-3.04l-33.38-96.35c-0.28-1.12-0.42-2.1-0.42-2.94
			c0-1.68,0.59-3.15,1.79-4.41c1.19-1.26,2.76-1.89,4.72-1.89c1.26,0,2.41,0.35,3.46,1.05c1.05,0.7,1.78,1.75,2.2,3.15l29.81,89.43
			l-3.99-0.21l27.08-68.22c1.12-2.66,3.08-3.99,5.88-3.99c1.4,0,2.59,0.35,3.57,1.05c0.98,0.7,1.75,1.68,2.31,2.94l28.76,68.43
			l-4.83,0.21l29.6-89.64C1383.17,230.02,1385.13,228.62,1388.07,228.62z"/>
	</g>
</g>
</svg>
